<svg height="24" viewBox="0 0 24 24" width="24" xmlns="http://www.w3.org/2000/svg"><g transform="matrix(.04687236 0 0 .04687236 0 .001352)"><path d="m0 256v-256h256 256v256 256h-256-256z" fill="#fdfefe"/><path d="m226 510.8364c-44.52214-3.60993-91.80808-23.2746-130.38743-54.22386-46.796714-37.54142-78.556962-89.8847-91.3065158-150.48-2.6054345-12.38295-2.6579491-13.37345-2.6579491-50.13254s.052515-37.74959 2.6579491-50.13254c10.8512298-51.57307 34.4858008-95.65932 70.6939458-131.86746 30.94186-30.941862 68.96011-53.428679 110.5-65.357915 21.3544-6.1324576 42.31361-8.67558227 71.5-8.67558227s50.1456 2.54312467 71.5 8.67558227c86.08633 24.721878 153.03899 92.854915 177.09576 180.217965 4.86613 17.67155 5.90424 29.47641 5.90424 67.13995s-1.03811 49.4684-5.90424 67.13995c-16.88058 61.30244-54.71955 113.49514-107.5252 148.31353-26.2557 17.31218-61.47853 31.73453-90.07056 36.88031-19.08601 3.43496-56.44058 4.575-82 2.50261zm75.23866-84.0864.26134-40.25 7.5.19644c4.125.10804 18.075.33304 31 .5 21.99563.28413 24.07614.15311 32.5-2.04664 17.65046-4.60914 32.4807-13.10064 45.56509-26.08967 16.4614-16.34144 27.71479-37.11842 33.61348-62.06013 3.32929-14.07737 4.27418-41.48693 1.95346-56.66615-4.39626-28.7548-17.97801-48.89814-40.70535-60.37086-22.94732-11.58377-51.69405-6.80964-78.92668 13.1078-7.54845 5.5208-18.86782 17.03582-24.50565 24.92921-4.71944 6.60757-5.5138 7.22875-7.32347 5.72685-1.15557-.95903-1.28662-5.12869-.76038-24.1928.3497-12.66873.9629-27.53405 1.36266-33.03405 1.65532-22.77422-1.86117-45.93444-9.24225-60.8709-8.92743-18.065707-26.89734-32.67518-45.61911-37.088181-29.12122-6.864307-68.07333 11.602321-90.36439 42.840441-4.74758 6.65314-6.81657 7.96556-7.94042 5.03685-.33385-.86998-.60699-10.99498-.60699-22.499997v-20.918213h-16.5034-16.5034l.2534 143.25.2534 143.25 16.25.27477 16.25.27477v-38.83364c0-30.53413.28135-39.21841 1.31646-40.63401 1.22184-1.67096 2.21014-1.72273 13.75-.7202 24.40902 2.12055 28.56921 2.25112 39.15816 1.22904 5.89853-.56935 14.44853-1.96664 19-3.10509 10.96967-2.74382 26.51987-10.58541 35.71986-18.01265 4.09446-3.30551 7.91946-5.85169 8.5-5.6582.72965.24319 1.13188 32.74271 1.30285 105.26851.13603 57.70418.45941 105.4792.71862 106.1667.35002.92837 4.59331 1.25 16.49132 1.25h16.02004zm13.36577-66.82912c-5.99256-1.05469-11.50506-2.42345-12.25-3.04169-1.10227-.91481-1.35443-9.4453-1.35443-45.82036v-44.69628l3.76001-6.21839c14.37324-23.7708 38.10701-46.31913 56.03273-53.23404 3.65686-1.41065 8.83125-2.37188 14.40285-2.67558 8.1362-.44348 9.12143-.2747 15.31522 2.62372 12.2446 5.72994 22.03929 18.98206 25.9846 35.15691 3.49973 14.34808 2.97812 41.47401-1.11176 57.81593-7.66418 30.62376-31.11497 54.76923-58.91234 60.65746-9.65826 2.04588-28.46599 1.79086-41.86688-.56768zm-140.60443-104.92737c-12.36029-1.41492-22.3855-3.82579-23.77918-5.71842-1.004-1.36346-1.21912-11.34618-1-46.40631l.27918-44.66916 6.66528-9.84981c21.38331-31.59977 47.88444-51.34981 68.90254-51.34981 9.02598 0 15.9183 3.07893 24.03716 10.73784 8.67144 8.1802 13.11133 16.70332 16.02512 30.76294 1.7963 8.66751 1.99869 12.2633 1.51968 26.99922-.54973 16.91117-1.78107 24.91186-5.46706 35.52248-8.98604 25.86749-29.58405 45.81412-53.67208 51.9748-8.92355 2.28226-23.45171 3.1477-33.51064 1.99623z" fill="#d0edf6"/><path d="m225.5 510.46197c-44.91587-4.37469-92.09451-24.30651-130.5-55.13305-41.417874-33.24446-73.414713-83.31451-86.8003118-135.82892-6.0159642-23.60184-6.5826249-29.0682-6.5826249-63.5s.5666607-39.89816 6.5826249-63.5c8.9199718-34.99485 26.3434678-69.6859 49.4713898-98.5 35.628803-44.388423 90.184032-77.633775 146.864332-89.4974954 11.52204-2.4116721 35.72445-4.47691483 52.46459-4.47691483 44.1881 0 78.14411 7.92475273 116.11062 27.09823423 49.49474 24.995355 89.00086 64.863246 113.76179 114.803546 12.67005 25.55421 20.62029 50.91616 23.58426 75.23579 2.0962 17.19947 2.0962 60.47421 0 77.67368-2.96206 24.30393-10.93219 49.73966-23.5286 75.08875-24.91178 50.13259-64.22047 89.89945-113.43379 114.75592-21.80857 11.01498-41.96652 18.19796-64.02969 22.81599-20.1692 4.2216-57.51844 5.54026-83.96459 2.96447zm76.5-83.35498c0-34.23841.20908-39.97325 1.47508-40.45905.81129-.31133 5.19879-.13843 9.75.38422 44.59968 5.12166 72.73702-.52961 96.38507-19.35854 21.95209-17.47859 36.8746-42.8216 43.5641-73.98521 3.12143-14.54149 3.20307-45.72045.15631-59.69844-4.20227-19.27928-12.7975-34.34678-25.83056-45.28116-21.49162-18.03088-47.12101-20.54226-74.97679-7.34685-16.96466 8.03624-29.87931 18.55619-42.29658 34.45374-4.15266 5.31655-6.84169 7.96924-7.45586 7.35507-.9371-.9371-.53915-30.92277.81583-61.47373 1.96031-44.19943-12.10695-73.867308-42.0866-88.760696-10.41421-5.173604-20.53039-7.312666-31-6.554936-11.4046.825398-18.34353 2.905133-32 9.591039-17.48717 8.561333-28.8863 18.226589-41.90093 35.527553-2.06869 2.75-4.28726 5-4.93016 5-.84879 0-1.24261-6.09336-1.43804-22.25l-.26913-22.25h-16.98087-16.98087v144.52418 144.52418l16.75-.27418 16.75-.27418.5-40 .5-40 11.5.5c25.69191 1.11704 48.1338.57747 56.5-1.35843 16.14226-3.73525 30.0455-10.62459 42.34461-20.98263 2.38954-2.01242 4.75204-3.65894 5.25-3.65894.53479 0 .90539 43.11606.90539 105.33333 0 57.93334.3 105.63334.66667 106 .36666.36667 8.24166.66667 17.5.66667h16.83333zm27.5-65.72418c-7.14365-.7224-22.40388-3.39577-24.9845-4.37692l-2.5155-.95639v-45.14394-45.14394l3.55958-5.85971c9.40679-15.48524 27.60881-35.29383 40.26278-43.81649 19.78012-13.32225 35.26023-15.22028 49.04718-6.0137 9.63741 6.43561 16.7802 17.28152 20.69773 31.42828 2.2567 8.14931 3.06945 33.88963 1.4485 45.87491-4.89181 36.16981-28.52859 65.01039-59.0434 72.04222-6.92335 1.59542-21.90548 2.62976-28.47237 1.96568zm-162.24965-108.00663c-5.08731-.78517-10.93731-1.98039-13-2.65606l-3.75035-1.22849-.26042-44.92452-.26042-44.92452 3.51863-5.90675c13.04032-21.89087 32.64401-41.18621 51.29568-50.48886 8.5084-4.243627 10.0388-4.670819 18.1166-5.057024 7.96574-.380847 9.41448-.156461 14.90843 2.309084 8.27172 3.71212 17.08016 12.94253 21.64439 22.68127 5.00609 10.68153 6.79807 20.64918 6.7992 37.81969.002 30.67939-7.22695 51.91765-23.74349 69.75705-18.84787 20.35743-42.96457 27.60483-75.26825 22.61913z" fill="#b5e4f1"/><path d="m227.5 510.47486c-34.46356-3.43362-76.67661-18.12986-106.5-37.07738-31.707159-20.14433-61.246791-49.68413-81.397012-81.39748-17.606994-27.7107-31.9348997-67.25353-36.7773989-101.5-1.6846438-11.91391-1.6846438-57.08609 0-69 4.842405-34.2458 19.1686669-73.78459 36.7769349-101.5 20.144325-31.707159 49.684126-61.246791 81.397476-81.397012 21.64501-13.752937 54.65583-27.173777 81.40123-33.0943876 32.18374-7.124494 77.0138-7.124494 109.19754 0 26.7454 5.9206106 59.75622 19.3414506 81.40123 33.0943876 31.71335 20.150221 61.25315 49.689853 81.39748 81.397012 17.54326 27.61309 31.86572 66.87702 36.0968 98.95666 2.04741 15.52324 2.03501 58.39221-.0214 74.04334-4.22781 32.17708-18.49593 71.33194-36.07584 99-20.15022 31.71335-49.68985 61.25315-81.39701 81.39748-21.64892 13.75408-54.65674 27.17351-81.40123 33.09392-23.42668 5.18595-56.36819 6.74627-84.09877 3.98346zm74.51531-81.72486c.008-21.5875.40515-39.86536.88162-40.61748.72643-1.14667 3.10559-1.16831 14.73469-.13399 35.686 3.17398 58.90608.0351 78.20184-10.57113 24.71742-13.5864 46.04389-41.26919 54.63665-70.921 7.67379-26.48067 7.72574-61.96107.12336-84.25157-4.32794-12.68968-8.35138-19.09854-18.05208-28.75483-13.10886-13.04885-22.95231-18.23468-39.19854-20.65101-25.95852-3.86085-61.66508 13.99592-82.11167 41.06387-6.70804 8.88035-7.4198 9.50148-8.5577 7.46816-1.14143-2.03962-.26734-36.73259 1.31676-52.26271 2.34644-23.00387-1.20989-46.64522-9.64522-64.11831-3.93929-8.159909-5.87404-10.773812-13.71563-18.530148-14.67728-14.517731-28.32648-20.424433-47.26752-20.455071-14.54909-.023533-31.89404 6.021266-48.36187 16.854343-7.44678 4.898736-21.12543 18.138636-27.25509 26.380876-2.76095 3.7125-5.40803 6.75-5.88241 6.75-.47437 0-.8625-9.585-.8625-21.3 0-15.233333-.34178-21.641784-1.2-22.5-1.37617-1.376167-31.447-1.71096-33.5534-.373567-.99698.632995-1.20156 30.243787-1 144.734687l.2534 143.93888 17.25.27361c9.4875.15049 17.34955.15049 17.47123 0 .12167-.15048.45917-18.27361.75-40.27361l.52877-40 3.5.0681c1.925.0375 11.43844.67866 21.14097 1.42486 14.15723 1.08881 19.83218 1.11908 28.73678.15329 20.88858-2.26556 36.74202-8.32112 51.73647-19.76185 4.60214-3.51141 8.82164-6.3844 9.37666-6.3844.67244 0 1.00912 35.1431 1.00912 105.33333 0 57.93334.3 105.63334.66667 106 .36666.36667 8.24166.66667 17.5.66667h16.83333l.0153-39.25zm22.98469-68.33559c-1.375-.24473-6.66961-1.15596-11.76581-2.02496-7.03056-1.19885-9.51053-2.03727-10.28026-3.47552-.65423-1.22245-.91493-17.43398-.73419-45.65473l.28026-43.7592 5.56868-8.5c15.56793-23.76278 35.75855-42.18246 53.84513-49.12231 8.47952-3.25361 19.18113-3.60351 26.44092-.86451 12.3476 4.65854 23.53614 19.70144 27.15934 36.51551 3.5392 16.42425 2.85896 40.01207-1.6517 57.27406-7.10274 27.18165-26.24077 48.33367-51.36237 56.76747-6.8078 2.28551-10.01183 2.73071-21.5 2.98745-7.425.16593-14.625.10146-16-.14326zm-160.5788-107.92563c-4.44334-.77446-9.28084-1.86512-10.75-2.42369l-2.6712-1.01559v-45.36971-45.36972l4.12687-6.40503c10.54877-16.37205 26.18758-33.29679 38.45038-41.61203 23.30716-15.804279 41.03865-16.084479 55.87674-.88299 10.30927 10.56175 15.32193 24.63176 16.25775 45.63376 1.52744 34.27956-7.17343 59.75271-26.81916 78.5172-8.89394 8.49499-16.70317 13.35526-27.40218 17.05442-7.18798 2.48524-9.54695 2.78872-23.4904 3.02207-9.98501.16711-18.37449-.24161-23.5788-1.14869z" fill="#8ed6eb"/><path d="m234 510.92091c-20.4015-1.93589-46.32559-7.71533-64.64329-14.4114-14.74617-5.39049-40.37187-18.39673-53.32781-27.06635-38.259377-25.60172-68.048462-59.4177-88.04168-99.94316-9.342484-18.93685-13.902013-31.01178-18.4484245-48.85671-11.3444589-44.52764-11.3444589-84.75894 0-129.28658 4.5464115-17.84493 9.1059405-29.91986 18.4484245-48.85671 24.888287-50.44757 65.06521-90.624493 115.51278-115.51278 18.93685-9.342484 31.01178-13.902013 48.85671-18.4484245 44.52764-11.3444589 84.75894-11.3444589 129.28658 0 17.84493 4.5464115 29.91986 9.1059405 48.85671 18.4484245 50.44757 24.888287 90.62449 65.06521 115.51278 115.51278 12.09234 24.51069 18.89267 45.35946 23.64764 72.5 2.6782 15.28671 2.6782 66.71329 0 82-4.75497 27.14054-11.5553 47.98931-23.64764 72.5-19.99322 40.52546-49.7823 74.34144-88.04168 99.94316-12.95594 8.66962-38.58164 21.67586-53.32781 27.06635-33.73594 12.33223-75.38493 17.75705-110.64329 14.4114zm69-83.42091.5-40 3.5.22445c1.925.12345 8.9.68131 15.5 1.23968 32.22874 2.72664 53.75039-.50969 73.32402-11.02613 9.64705-5.18312 17.09752-11.01181 25.82778-20.20568 21.70981-22.8627 33.66154-52.76626 35.06448-87.73232.96655-24.08952-2.28167-42.56454-10.37274-58.99744-3.9071-7.93529-6.09012-10.89594-13.2722-18-9.27933-9.17851-16.24394-13.80152-26.82979-17.8092-5.9153-2.23947-8.33484-2.56092-19.74155-2.62282-10.97852-.0596-14.16624.29471-20.5 2.27838-9.53366 2.98585-23.64733 10.028-31.94566 15.93959-8.02392 5.71611-20.30377 18.02337-25.47523 25.5321-2.15135 3.12366-4.33421 5.67939-4.85079 5.67939-.90182 0-.51004-27.18738.8781-60.93571 1.38341-33.63315-5.9901-57.4812-23.07347-74.626235-9.01906-9.05162-17.24362-14.310834-28.43658-18.183846-10.39844-3.598091-25.85016-3.783869-37.47144-.450524-21.78034 6.247285-42.62707 20.725381-57.15727 39.695845-3.1597 4.12526-6.12374 7.50047-6.58678 7.50047-.46303 0-.96315-9.7875-1.11138-21.75l-.2695-21.75-17.75336-.273088-17.75335-.273088.25335 145.273086.25336 145.27309h17.5 17.5l.5-40 .5-40 5.5.12835c3.025.0706 14.51948.47332 25.54328.89494 16.95176.64835 21.65616.49704 30.5-.98104 17.56602-2.93581 32.37152-9.36359 45.10329-19.58151 3.39966-2.72841 6.55745-4.96074 7.01732-4.96074.45986 0 .83611 47.175.83611 104.83333 0 57.65834.31004 105.14337.68897 105.52231.37894.37893 8.59144.56643 18.25.41667l17.56103-.27231zm27-67.17408c-6.62937-.4783-23.22842-3.42423-25.25-4.48126-1.62678-.8506-1.75-4.05122-1.75-45.45474v-44.53971l4.63796-7.1751c18.19022-28.141 40.89681-47.56501 61.11202-52.27738 12.78194-2.9796 23.21171.4731 32.83817 10.87082 6.18463 6.68014 10.30409 14.4406 13.12811 24.73145 1.4401 5.24776 1.77943 10.35303 1.76135 26.5-.0194 17.31037-.32125 21.18438-2.24478 28.80698-7.40471 29.34364-24.9542 50.00647-50.20912 59.11643-6.62396 2.3894-21.29724 4.77507-27.02371 4.39368-1.375-.0916-4.525-.31261-7-.49117zm-156-106.9535c-8.50151-1.07397-20.58849-3.61594-21.74074-4.57222-.97764-.81137-1.25926-10.94511-1.25926-45.3132v-44.26812l5.86096-8.85944c7.52652-11.3771 10.53763-15.11409 19.94014-24.74699 9.81791-10.0585 20.69126-18.17958 30.20803-22.56178 6.27589-2.88986 8.91457-3.518146 16.26856-3.873641 8.25245-.398925 9.16031-.235956 15.1717 2.723441 15.26927 7.51704 24.42311 24.10278 26.47885 47.97677.85472 9.9262.131 27.64581-1.47537 36.12276-3.84282 20.27892-14.38015 39.10291-28.36812 50.6771-7.27671 6.02103-19.61041 12.56568-28.08475 14.90266-5.46406 1.50682-26.30195 2.6388-33 1.79266z" fill="#64c7e4"/><path d="m240.5 511.43718c-35.21397-3.30385-66.37155-11.8891-96-26.45214-51.638908-25.38166-91.103376-64.84613-116.485039-116.48504-14.453991-29.4066-21.4543603-54.19322-25.5157418-90.34512-1.89153195-16.83724-1.89153195-27.47252 0-44.30976 4.0613815-36.1519 11.0617508-60.93852 25.5157418-90.34512 12.902501-26.2501 28.261148-47.799365 48.473411-68.011628 36.958638-36.958639 85.801388-62.347194 136.511628-70.9590093 5.225-.8873304 12.425-2.1456531 16-2.7962728 8.49467-1.54595865 47.50533-1.54595865 56 0 3.575.6506197 10.775 1.9089424 16 2.7962728 23.7422 4.0319946 45.46051 11.1611813 68.5 22.4855983 51.60191 25.363479 91.12156 64.883126 116.48504 116.485039 11.30091 22.99166 17.16192 40.82033 23.17624 70.5 2.13819 10.55162 2.33037 14.01526 2.33037 42 0 32.87217-.39599 36.40705-7.07906 63.19253-6.03845 24.20183-19.46934 54.89527-33.17199 75.80747-39.04172 59.58323-101.54103 100.86993-170.2406 112.46002-5.225.8815-11.975 2.05376-15 2.60504-5.71098 1.04076-38.49441 2.0294-45.5 1.37212zm62.5-82.93718.5-40 6.5.2239c3.575.12315 12.35.61559 19.5 1.09432 16.23364 1.08693 32.50705.0509 44.08908-2.80683 41.65495-10.27793 73.96881-49.27875 82.02535-98.9995 2.03214-12.54127 2.00791-36.63142-.0496-49.33213-4.70035-29.01436-18.96253-49.56899-42.06482-60.62375-20.70852-9.90931-39.67719-9.03054-63.72242 2.95209-4.24732 2.11661-10.32232 5.56737-13.5 7.66836-7.62099 5.03881-20.02192 16.9359-26.48025 25.40439-2.8514 3.73889-5.54728 6.57369-5.99084 6.29955-1.24111-.76705-.95517-31.25193.37574-40.05804 2.00377-13.25822 1.42693-40.07411-1.12499-52.29764-5.11236-24.48788-16.55284-41.751063-35.42096-53.448636-12.24707-7.592756-17.88442-9.083741-34.13629-9.028481-13.27586.04514-14.46552.217639-23 3.334983-18.6428 6.809556-36.37696 18.970372-47.66448 32.684904-3.48454 4.23377-7.3338 8.87558-8.55392 10.31513l-2.2184 2.61738-.0316-20.315741c-.0187-12.027687-.45392-21.104846-1.06678-22.25-.96055-1.794807-2.24946-1.934259-17.87756-1.934259-12.95945 0-17.10193.312744-17.9682 1.356545-.82558.994764-1.05826 39.865305-.87245 145.750005l.25339 144.39345 17.92628.27379c13.67228.20882 18.11812-.0285 18.73469-1 .44462-.70058.8153-18.9938.82372-40.6516l.01531-39.37781 3.75.58369c2.0625.32102 11.46059 1.13376 20.88464 1.80608 34.55312 2.46505 59.57468-3.63861 80.17936-19.55861 3.96891-3.06655 7.65941-5.57554 8.2011-5.57554.64027 0 .9849 36.68278.9849 104.83333 0 57.65834.31004 105.14337.68897 105.52231.37894.37893 8.59144.56643 18.25.41667l17.56103-.27231zm15.01081-70.1582c-5.21905-.80407-10.61905-2.00367-12-2.66577l-2.51081-1.20383v-44.4861-44.4861l5.38515-8c15.89114-23.60735 35.75646-41.87078 52.90759-48.64124 8.37528-3.30617 21.82282-3.28637 28.58461.0421 10.94166 5.38598 20.9751 19.76437 24.14376 34.59914 3.34368 15.65413 2.85815 39.80605-1.11101 55.26588-4.00791 15.61077-11.55668 29.33722-21.72677 39.50731-6.85812 6.85812-12.62787 10.86227-21.93919 15.22558-13.58898 6.36784-31.15965 8.01272-51.73333 4.84303zm-151.01081-106.45329c-3.025-.48273-7.6375-1.37501-10.25-1.98284l-4.75-1.10515-.005-45.15026-.005-45.15026 6.42039-9.5c15.81008-23.39356 34.43539-40.1208 52.50363-47.15306 7.91363-3.08003 19.82625-3.139767 26.36469-.1322 7.15471 3.29103 16.14201 12.40347 20.16584 20.44663 5.55676 11.10731 7.06156 19.65038 7.01727 39.83863-.0513 23.39484-2.4338 34.22338-11.32936 51.49287-6.3449 12.31775-18.99989 25.1628-30.84553 31.30879-12.15486 6.30643-20.85726 8.22289-36.69668 8.08144-7.19973-.0643-15.56525-.51187-18.59025-.99459z" fill="#45bddf"/><path d="m240 510.97528c-10.09588-.80745-30.13399-4.07827-42-6.85566-24.79634-5.8039-51.50944-16.87167-74.5-30.86683-31.980919-19.46792-64.284874-51.77187-83.752788-83.75279-19.465968-31.97772-31.9175932-67.92036-35.682338-103-.6492856-6.05-1.6044991-14.01168-2.1226967-17.69263-1.19731001-8.50493-1.19731001-17.10981 0-25.61474.5181976-3.68095 1.4734111-11.64263 2.1226967-17.69263 3.7647448-35.07964 16.21637-71.02228 35.682338-103 19.467914-31.980919 51.771869-64.284874 83.752788-83.752788 36.22418-22.050933 75.52578-34.4250294 120.25-37.86066824 25.22308-1.93759466 60.90393 2.72536294 89.25 11.66365024 19.08272 6.017302 40.02006 15.556359 57.5 26.197018 31.98092 19.467914 64.28487 51.771869 83.75279 83.752788 15.95343 26.2075 27.65183 56.25036 32.7088 84 1.20276 6.6 2.71594 13.8 3.36262 16 1.62197 5.51788 1.62197 61.48212 0 67-.64668 2.2-2.15986 9.4-3.36262 16-5.05697 27.74964-16.75537 57.7925-32.7088 84-19.46792 31.98092-51.77187 64.28487-83.75279 83.75279-22.99056 13.99516-49.70366 25.06293-74.5 30.86683-27.43534 6.42159-52.80884 8.71043-76 6.85566zm63.76145-82.84799.26145-40.37271 2.94634.58927c1.62049.3241 10.84594 1.14447 20.50101 1.82305 28.1929 1.98147 46.95641-.78862 65.02975-9.60044 11.12092-5.4221 19.71521-11.88614 29.62106-22.27893 22.27542-23.37041 33.95927-52.53167 35.57392-88.78753 1.02677-23.0553-2.31937-41.9674-10.35046-58.5-3.95451-8.14064-5.91984-10.78782-13.73489-18.5-10.11522-9.98209-18.58638-15.44784-29.10963-18.78208-5.74072-1.81892-9.24872-2.20737-19.5-2.15927-14.51496.0681-21.43955 1.97899-37.95701 10.47447-15.3038 7.87125-26.14086 17.28032-40.31413 35.00197l-2.77114 3.46491.52257-23c.28741-12.65.79297-28.99567 1.12346-36.32371 1.03009-22.84052-2.18139-40.76539-10.23399-57.12092-3.83363-7.786437-6.16168-10.963892-13.2599-18.097905-13.27486-13.341791-27.52977-20.35842-43.92918-21.623051-17.27149-1.331881-40.66383 7.049108-59.18068 21.203204-6.32596 4.835502-19.32513 18.242372-23 23.721372-1.375 2.05004-2.82855 3.73042-3.23011 3.73418-.40156.004-.85156-9.55567-1-21.24317l-.26989-21.25h-18.5-18.5l-.25337 145.4389c-.20154 115.69093.003 145.60167 1 146.23469 2.11178 1.34081 34.1759 1.00388 35.55337-.37359.89273-.89273 1.2-11.29095 1.2-40.6093v-39.40929l11.25.85929c6.1875.47262 19.8.81488 30.25.76058 17.20424-.0894 19.94514-.34976 29-2.75489 12.21109-3.24348 25.65531-9.80532 35-17.08275l7-5.45145.51602 105.19391c.28381 57.85664.62131 105.31633.75 105.46597.12869.14963 8.67148.14963 18.98398 0l18.75-.27207zm25.23855-68.7431c-8.8297-1.08243-17.82196-2.54712-21.25-3.46127l-3.75-1.00001v-44.61637-44.61637l6.39053-9.59932c16.88973-25.37037 38.7882-43.84758 57.71221-48.69568 12.29339-3.14942 22.22866-.22377 31.82355 9.37112 6.41453 6.41453 9.68465 12.09749 13.08156 22.73371 1.8143 5.68085 2.33063 10.14248 2.73984 23.67534.73956 24.45812-2.18682 40.19518-10.40243 55.94053-9.68223 18.55615-28.66711 33.9272-47.34526 38.33294-6.77139 1.59722-22.95063 2.67698-29 1.93538zm-161.14107-107.92423c-4.75259-.74048-10.15259-1.73792-12-2.21653l-3.35893-.87022-.26051-44.33082-.2605-44.33082 2.46951-4.2139c4.55788-7.77744 14.80585-20.93159 22.46069-28.83025 9.95722-10.27435 19.7464-17.66876 29.53047-22.3063 6.87575-3.25903 9.12393-3.81992 16.77769-4.18585 8.32085-.39783 9.21297-.237978 15.24516 2.73166 11.64273 5.7317 20.64926 19.00421 24.15292 35.59307 2.28949 10.84008 2.27357 34.80622-.0311 46.8724-7.97575 41.7569-37.7471 67.93772-76.79215 67.53074-5.11069-.0533-13.18064-.7027-17.93323-1.44318z" fill="#2fb5dc"/><path d="m243.5 511.05681c-5.5-.36821-9.1-.80543-8-.97159 1.1-.16617-2.87561-.89185-8.83468-1.61263-46.20392-5.58861-89.03134-23.26277-126.5506-52.22533-11.081431-8.55418-34.807796-32.28055-43.361977-43.36198-35.609227-46.12962-53.752743-99.08414-53.752743-156.88528s18.143516-110.75566 53.752743-156.885281c8.554181-11.08143 32.280546-34.807795 43.361977-43.361976 37.51926-28.96256 80.34668-46.6367256 126.5506-52.2253312 5.95907-.7207813 9.93468-1.4295465 8.83468-1.5750339-1.1-.1454875 3.2875-.5709837 9.75-.9455472 10.1876-.59046884 38.7272.2211261 33.25.9455472-1.1.1454874 2.87561.8542526 8.83468 1.5750339 46.20392 5.5886056 89.03134 23.2627712 126.5506 52.2253312 11.03656 8.519547 34.79739 32.266639 43.27228 43.247257 27.34362 35.4282 44.60019 75.3206 51.2605 118.5.76353 4.95 1.49517 8.325 1.62588 7.5.76906-4.85405 1.75827 12.58674 1.75827 31s-.98921 35.85405-1.75827 31c-.13071-.825-.86235 2.55-1.62588 7.5-6.66031 43.1794-23.91688 83.0718-51.2605 118.5-8.47489 10.98062-32.23572 34.72771-43.27228 43.24726-37.35369 28.83475-81.77612 47.204-125.67899 51.96991-6.61528.71813-10.55066 1.51934-9.5 1.93413.98654.38947-1.62778.73976-5.8096.77841-4.18182.0387-10.25682.2337-13.5.43343s-10.39669.06188-15.89669-.30633zm60.5-81.55681.5-40 5.5.17651c3.025.0971 11.8.65259 19.5 1.23446 32.29727 2.44063 58.66816-3.88195 78.53167-18.82842 24.99014-18.80407 42.68389-48.93409 48.49632-82.58255 2.2927-13.27262 2.31739-38.51725.0504-51.5-2.03727-11.667-6.24473-24.14119-10.71283-31.76121-5.4442-9.28469-19.92259-23.05435-29.36552-27.92808-11.84667-6.11434-18.19812-7.7203-30.5-7.71188-16.11303.011-31.31 5.03893-48.1601 15.93373-10.45311 6.75869-17.13255 12.70909-25.41801 22.64372-3.97979 4.77196-7.50282 8.40946-7.82894 8.08334-1.16145-1.16145-.56713-25.22934.99685-40.36952 2.5675-24.85467.61597-46.92597-5.69011-64.35368-7.47155-20.648519-24.28031-37.701451-44.65818-45.306859-9.8765-3.686096-26.64512-4.275502-38.31106-1.346607-10.15343 2.549157-28.00398 11.252062-36.93049 18.005184-6.51112 4.92582-17.75484 16.108101-23.7416 23.611862l-3.19134 4-.0335-19.678571c-.0282-16.525503-.28532-19.93036-1.60496-21.25-2.16007-2.160068-35.5356-2.352318-37.30949-.214911-.82561.994801-1.05825 40.125892-.87245 146.750002l.25334 145.39348 19.12783.27117 19.12784.27116.60851-2.27116c.33468-1.24915.61466-19.53992.62217-40.64617l.01365-38.375 2.95779.59156c1.62678.32535 10.8127 1.14362 20.41314 1.81836 20.57473 1.44604 35.22887.34016 49.22047-3.71445 9.81094-2.84309 23.38551-9.54541 30.80291-15.20864 2.69187-2.05526 5.72937-4.35422 6.75-5.1088 1.80452-1.33414 1.85569 1.5224 1.85569 103.58333 0 57.72542.30962 105.26492.68804 105.64335.37842.37842 9.04092.56592 19.25.41666l18.56196-.27137zm17.65837-71.63204c-3.7629-.48347-9.1629-1.46706-12-2.18575l-5.15837-1.30671-.2609-42.90185-.2609-42.90185 2.5578-5.0359c8.57374-16.88031 30.91336-40.32261 47.464-49.80682 18.04223-10.33895 34.62095-8.58336 47.01593 4.97873 8.88888 9.72585 13.54188 23.34185 14.60074 42.72595 2.32916 42.63865-15.37828 77.24804-46.81611 91.50263-12.2441 5.55174-28.81971 7.28572-47.14219 4.93157zm-156.05553-107.34095c-4.34343-.76123-8.95593-1.6498-10.25-1.97459l-2.35284-.59052v-44.55482-44.55481l7.24725-10.64692c21.65014-31.80616 50.9376-51.515978 70.46349-47.42038 7.19768 1.50973 15.00449 6.65679 20.40639 13.45403 8.04907 10.12818 11.65981 21.8639 12.56818 40.84946 2.24303 46.88067-17.62709 81.65165-53.68531 93.94461-8.32535 2.83828-32.15201 3.64003-44.39716 1.49394zm-164.3304759 5.47299c0-2.475.195016-3.4875.4333689-2.25s.2383529 3.2625 0 4.5-.4333689.225-.4333689-2.25z" fill="#00a5d5"/></g></svg>